<svg width="72" height="72" viewBox="0 0 72 72" fill="none" xmlns="http://www.w3.org/2000/svg">
<g clip-path="url(#clip0_86_54)">
<path d="M0 62.5873C0 67.7862 4.15659 72 9.28378 72H62.7159C67.844 72 72 67.7857 72 62.5873V8.41301C72 3.21375 67.8434 -1 62.7162 -1H9.28406C4.15603 -1 0 3.21432 0 8.41272V62.5873Z" fill="#EDF2F4"/>
<path d="M29.8569 31.8482V21.652H38.8319C39.6869 21.652 40.511 21.7232 41.3046 21.8658C42.0983 22.0081 42.8006 22.2623 43.4112 22.6288C44.0215 22.9953 44.5101 23.5041 44.8765 24.1552C45.2427 24.8065 45.4261 25.641 45.4261 26.6583C45.4261 28.4901 44.8765 29.8131 43.7774 30.627C42.6786 31.4412 41.2743 31.8482 39.5646 31.8482H29.8569V31.8482ZM20.2711 14.2031V57.7969H41.3963C43.3502 57.7969 45.2531 57.5528 47.1052 57.0642C48.9572 56.5757 50.6056 55.8228 52.0507 54.8052C53.4954 53.7877 54.6455 52.4748 55.5002 50.8672C56.3552 49.2592 56.7824 47.3563 56.7824 45.1583C56.7824 42.4311 56.1209 40.1009 54.7982 38.1676C53.4752 36.234 51.4704 34.8806 48.7839 34.1072C50.7378 33.1712 52.2135 31.9702 53.2108 30.5049C54.2078 29.0396 54.7065 27.2081 54.7065 25.0099C54.7065 22.9748 54.3707 21.2653 53.6991 19.8813C53.0274 18.4975 52.081 17.3883 50.8598 16.5538C49.6389 15.7193 48.1736 15.1189 46.4639 14.7527C44.7545 14.3862 42.8617 14.2031 40.7857 14.2031H20.2711V14.2031ZM29.8569 50.348V38.3811H40.2972C42.3731 38.3811 44.0421 38.8592 45.304 39.816C46.5657 40.7725 47.1968 42.37 47.1968 44.6088C47.1968 45.7487 47.0033 46.6847 46.6166 47.4173C46.2299 48.15 45.711 48.7302 45.0596 49.1574C44.4085 49.5849 43.6553 49.8901 42.8006 50.0735C41.9456 50.2563 41.0504 50.348 40.1141 50.348H29.8569V50.348Z" fill="#2B2D42"/>
</g>
<defs>
<clipPath id="clip0_86_54">
<rect width="72" height="72" fill="white"/>
</clipPath>
</defs>
</svg>
