<svg width="16" height="16" viewBox="0 0 16 16" fill="none" xmlns="http://www.w3.org/2000/svg">
<g clip-path="url(#clip0_85_26)">
<path d="M0 1.17352C0 0.543428 0.529625 0.0319824 1.1825 0.0319824H14.8175C15.4706 0.0319824 16 0.543428 16 1.17352V14.8266C16 15.4569 15.4706 15.968 14.8175 15.968H1.1825C0.529688 15.968 0 15.457 0 14.8268V1.17334V1.17352Z" fill="#EDF2F4"/>
<path d="M4.86225 13.3683V6.19384H2.468V13.3683H4.8625H4.86225ZM3.66562 5.21446C4.50037 5.21446 5.02006 4.66355 5.02006 3.97506C5.00444 3.27089 4.50037 2.73535 3.6815 2.73535C2.86206 2.73535 2.32687 3.27089 2.32687 3.975C2.32687 4.66348 2.84637 5.2144 3.64994 5.2144H3.66544L3.66562 5.21446ZM6.1875 13.3683H8.58156V9.36217C8.58156 9.14803 8.59719 8.93334 8.66044 8.78039C8.83344 8.3518 9.22737 7.90814 9.88894 7.90814C10.7551 7.90814 11.1017 8.566 11.1017 9.53056V13.3683H13.4957V9.25467C13.4957 7.05108 12.3147 6.02564 10.7396 6.02564C9.44812 6.02564 8.88094 6.74456 8.56581 7.23422H8.58175V6.19409H6.18762C6.21887 6.86713 6.18744 13.3685 6.18744 13.3685L6.1875 13.3683Z" fill="#2B2D42"/>
</g>
<defs>
<clipPath id="clip0_85_26">
<rect width="16" height="16" fill="white"/>
</clipPath>
</defs>
</svg>
