<svg width="71" height="80" viewBox="0 0 71 80" fill="none" xmlns="http://www.w3.org/2000/svg">
<g clip-path="url(#clip0_86_48)">
<path d="M69.9857 38.0071C69.9857 33.3562 64.1797 28.9485 55.2782 26.2152C57.3324 17.1136 56.4194 9.87243 52.3966 7.55411C51.4693 7.01031 50.3852 6.75271 49.2011 6.75271V9.94399C49.8573 9.94399 50.3852 10.0728 50.8274 10.3161C52.7675 11.4323 53.6091 15.6826 52.9529 21.1492C52.796 22.4944 52.5392 23.9112 52.2254 25.3565C49.4294 24.6696 46.3766 24.1401 43.1669 23.7967C41.2411 21.1492 39.2439 18.745 37.2325 16.6414C41.883 12.3052 46.2482 9.92968 49.2154 9.92968V6.7384C45.2924 6.7384 40.1569 9.54329 34.9643 14.4089C29.7717 9.57191 24.6362 6.79565 20.7133 6.79565V9.98692C23.6662 9.98692 28.0456 12.3482 32.6961 16.6557C30.699 18.7593 28.7019 21.1492 26.8046 23.7967C23.5806 24.1401 20.5278 24.6696 17.7318 25.3709C17.4037 23.9398 17.1612 22.5517 16.99 21.2208C16.3195 15.7541 17.1469 11.5038 19.0727 10.3733C19.5007 10.1157 20.0571 10.0012 20.7133 10.0012V6.80996C19.515 6.80996 18.4308 7.06755 17.4893 7.61135C13.4807 9.92968 12.582 17.1565 14.6505 26.2295C5.77746 28.9771 0 33.3705 0 38.0071C0 42.6581 5.80599 47.0658 14.7076 49.7991C12.6533 58.9007 13.5663 66.1419 17.5892 68.4602C18.5164 69.004 19.6006 69.2616 20.7989 69.2616C24.7218 69.2616 29.8573 66.4567 35.0499 61.5911C40.2425 66.4281 45.378 69.2043 49.301 69.2043C50.4993 69.2043 51.5834 68.9467 52.525 68.4029C56.5335 66.0846 57.4322 58.8577 55.3638 49.7848C64.2083 47.0515 69.9857 42.6438 69.9857 38.0071V38.0071ZM51.4123 28.462C50.8844 30.308 50.2282 32.2113 49.4864 34.1147C48.9016 32.9698 48.2882 31.825 47.6177 30.6801C46.9615 29.5353 46.2625 28.419 45.5635 27.3314C47.5892 27.6319 49.5435 28.004 51.4123 28.462ZM44.8787 43.7028C43.766 45.6347 42.6248 47.4665 41.4408 49.1694C39.3153 49.3555 37.1612 49.4557 34.9929 49.4557C32.8388 49.4557 30.6847 49.3555 28.5735 49.1838C27.3894 47.4808 26.2339 45.6633 25.1213 43.7457C24.0371 41.871 23.0528 39.9677 22.1541 38.0501C23.0385 36.1325 24.0371 34.2148 25.107 32.3401C26.2197 30.4082 27.3609 28.5764 28.5449 26.8735C30.6705 26.6874 32.8245 26.5873 34.9929 26.5873C37.1469 26.5873 39.301 26.6874 41.4123 26.8592C42.5963 28.5621 43.7518 30.3796 44.8645 32.2972C45.9486 34.1719 46.9329 36.0752 47.8317 37.9928C46.9329 39.9105 45.9486 41.8281 44.8787 43.7028ZM49.4864 41.8424C50.2568 43.76 50.913 45.6777 51.4551 47.538C49.5863 47.996 47.6177 48.3824 45.5777 48.6829C46.2767 47.581 46.9757 46.4504 47.632 45.2913C48.2882 44.1464 48.9016 42.9872 49.4864 41.8424ZM35.0214 57.1119C33.6947 55.738 32.368 54.2068 31.0556 52.5324C32.3395 52.5897 33.6519 52.6326 34.9786 52.6326C36.3195 52.6326 37.6462 52.604 38.9444 52.5324C37.6605 54.2068 36.3338 55.738 35.0214 57.1119ZM24.408 48.6829C22.3823 48.3824 20.428 48.0103 18.5592 47.5523C19.087 45.7063 19.7432 43.803 20.485 41.8996C21.0699 43.0445 21.6833 44.1893 22.3538 45.3342C23.0242 46.479 23.709 47.5953 24.408 48.6829ZM34.9501 18.9024C36.2767 20.2763 37.6034 21.8075 38.9158 23.4819C37.6319 23.4246 36.3195 23.3817 34.9929 23.3817C33.6519 23.3817 32.3252 23.4103 31.0271 23.4819C32.311 21.8075 33.6377 20.2763 34.9501 18.9024ZM24.3937 27.3314C23.6947 28.4333 22.9957 29.5639 22.3395 30.723C21.6833 31.8679 21.0699 33.0127 20.485 34.1576C19.7147 32.24 19.0585 30.3223 18.5164 28.462C20.3852 28.0183 22.3538 27.6319 24.3937 27.3314V27.3314ZM11.4836 45.2483C6.43367 43.0874 3.1669 40.2539 3.1669 38.0071C3.1669 35.7604 6.43367 32.9126 11.4836 30.766C12.7104 30.2365 14.0514 29.7642 15.4351 29.3206C16.2482 32.1255 17.3181 35.0448 18.6448 38.0358C17.3324 41.0124 16.2767 43.9174 15.4779 46.708C14.0656 46.2644 12.7247 45.7778 11.4836 45.2483ZM19.1583 65.6982C17.2183 64.582 16.3766 60.3317 17.0328 54.8651C17.1897 53.5199 17.4465 52.1031 17.7603 50.6578C20.5563 51.3447 23.6091 51.8742 26.8188 52.2176C28.7446 54.8651 30.7418 57.2693 32.7532 59.3729C28.1027 63.7091 23.7375 66.0846 20.7703 66.0846C20.1284 66.0703 19.5863 65.9415 19.1583 65.6982V65.6982ZM52.9957 54.7935C53.6662 60.2602 52.8388 64.5105 50.913 65.641C50.485 65.8986 49.9287 66.0131 49.2725 66.0131C46.3195 66.0131 41.9401 63.6518 37.2896 59.3443C39.2867 57.2406 41.2839 54.8508 43.1812 52.2033C46.4051 51.8598 49.4579 51.3304 52.2539 50.6291C52.582 52.0745 52.8388 53.4626 52.9957 54.7935V54.7935ZM58.4879 45.2483C57.261 45.7778 55.9201 46.2501 54.5364 46.6937C53.7232 43.8888 52.6533 40.9694 51.3267 37.9785C52.6391 35.0019 53.6947 32.0969 54.4936 29.3063C55.9058 29.7499 57.2468 30.2365 58.5021 30.766C63.5521 32.9269 66.8188 35.7604 66.8188 38.0071C66.8045 40.2539 63.5378 43.1017 58.4879 45.2483V45.2483Z" fill="#EDF2F4"/>
<path d="M34.9785 44.5471C38.579 44.5471 41.4978 41.619 41.4978 38.0071C41.4978 34.3952 38.579 31.4672 34.9785 31.4672C31.3781 31.4672 28.4593 34.3952 28.4593 38.0071C28.4593 41.619 31.3781 44.5471 34.9785 44.5471Z" fill="#EDF2F4"/>
</g>
<defs>
<clipPath id="clip0_86_48">
<rect width="71" height="80" fill="white"/>
</clipPath>
</defs>
</svg>
