<svg width="70" height="42" viewBox="0 0 70 42" fill="none" xmlns="http://www.w3.org/2000/svg">
<g clip-path="url(#clip0_86_52)">
<path d="M35 0C25.6701 0 19.8392 4.66676 17.5065 13.9994C21.0055 9.33265 25.0873 7.58327 29.7519 8.74953C32.4136 9.41496 34.3158 11.3473 36.4218 13.4855C39.8518 16.9685 43.8216 20.9996 52.4935 20.9996C61.8226 20.9996 67.6543 16.3328 69.9861 6.99927C66.488 11.666 62.4062 13.4163 57.7408 12.25C55.08 11.5846 53.1777 9.65223 51.0717 7.5141C47.6417 4.0311 43.6711 0 35 0V0ZM17.5065 20.9996C8.17744 20.9996 2.34568 25.6663 0.013855 34.9999C3.51203 30.3331 7.59382 28.5828 12.2592 29.75C14.92 30.4163 16.8223 32.3478 18.9283 34.485C22.3583 37.968 26.3289 42 35 42C44.3299 42 50.1608 37.3332 52.4935 27.9997C48.9945 32.6665 44.9127 34.4167 40.2481 33.2496C37.5864 32.585 35.6842 30.6518 33.5782 28.5145C30.1482 25.0315 26.1784 20.9996 17.5065 20.9996V20.9996Z" fill="#EDF2F4"/>
</g>
<defs>
<clipPath id="clip0_86_52">
<rect width="70" height="42" fill="white"/>
</clipPath>
</defs>
</svg>
