<svg width="30" height="30" viewBox="0 0 30 30" fill="none" xmlns="http://www.w3.org/2000/svg">
<path d="M25.678 4.37856C22.8961 1.5618 19.0799 -0.0184306 15.1061 0.000162233H15.0808C6.89704 0.000187633 0.162597 6.68368 0.162597 14.8055C0.162597 14.8436 0.163416 14.8809 0.163416 14.919C0.194241 17.5013 0.867816 20.0359 2.1242 22.2974L0 30L7.91664 27.973C10.1036 29.1646 12.5623 29.7788 15.0571 29.7568C23.2711 29.7122 30.0047 22.9906 29.9998 14.8379C30.0194 10.9209 28.4631 7.15394 25.678 4.37856ZM15.1061 27.2433C12.8947 27.2547 10.7221 26.6659 8.82347 25.5406L8.33328 25.2973L3.61925 26.5135L4.84473 21.8919L4.51795 21.4055C3.30406 19.4603 2.66096 17.2176 2.66092 14.9296C2.66092 8.18205 8.25568 2.62962 15.0547 2.62962C21.8536 2.62962 27.4484 8.18205 27.4484 14.9296C27.4484 19.1782 25.2303 23.1365 21.593 25.3784C19.6693 26.6013 17.4315 27.2488 15.147 27.2433M22.3283 18.2433L21.4296 17.8379C21.4296 17.8379 20.1224 17.2703 19.3054 16.865C19.2237 16.865 19.1421 16.7839 19.0603 16.7839C18.8589 16.7888 18.6621 16.8446 18.4884 16.946C18.3144 17.0474 18.4067 17.0271 17.263 18.3244C17.1854 18.476 17.026 18.5709 16.8545 18.5676H16.7728C16.65 18.5472 16.5361 18.4908 16.446 18.4055L16.0375 18.2433C15.161 17.8751 14.3584 17.3532 13.6682 16.7028C13.5048 16.5406 13.2597 16.3784 13.0963 16.2163C12.4915 15.6413 11.9692 14.9865 11.5441 14.2704L11.4623 14.1082C11.3914 14.0091 11.3363 13.8997 11.2989 13.7839C11.2776 13.6434 11.3065 13.5 11.3806 13.3785C11.455 13.2569 11.7074 12.9731 11.9525 12.7298C12.1976 12.4866 12.1976 12.3245 12.361 12.1623C12.445 12.0465 12.503 11.9143 12.5312 11.7744C12.5594 11.6346 12.5571 11.4904 12.5244 11.3515C12.1437 10.3023 11.7073 9.27387 11.2173 8.27042C11.0859 8.06766 10.8812 7.92258 10.6454 7.86501H9.74666C9.58327 7.86501 9.41988 7.94609 9.25647 7.94609L9.17477 8.02716C9.01138 8.10824 8.84799 8.27042 8.68458 8.3515C8.52119 8.43257 8.43949 8.67583 8.2761 8.83798C7.70496 9.55426 7.38894 10.4381 7.3774 11.3515C7.38645 11.9939 7.52536 12.6281 7.78588 13.2163L7.8676 13.4596C8.60119 15.0161 9.62713 16.4195 10.8905 17.5947L11.2173 17.919C11.4551 18.1145 11.6739 18.3316 11.8708 18.5676C13.5636 20.0295 15.5742 21.0836 17.745 21.6487C17.9901 21.7298 18.3169 21.7298 18.562 21.8109H19.379C19.806 21.79 20.2237 21.6794 20.6045 21.4865C20.8046 21.3965 20.9958 21.2879 21.1763 21.1622L21.3397 21.0001C21.5031 20.8379 21.6665 20.7568 21.8299 20.5947C21.9896 20.4535 22.1273 20.2895 22.2384 20.1082C22.3953 19.7449 22.5056 19.3639 22.5652 18.9731V18.4055C22.4918 18.34 22.4093 18.2854 22.3201 18.2433" fill="white"/>
</svg>
